# xmcd
#
# Track frame offsets:
# 150
# 19220
# 34414
# 49649
# 63312
# 80033
# 95873
# 113325
# 128182
# 145808
# 164181
# 188206
# 204764
# 219036
# 233695
# 249386
# 269750
# 288016
# 303316
# 324502
# 342020
#
# Disc length: 4779 seconds
#
#
# Revision: 2
# Processed by: cddbd v1.5.2PL0 Copyright (c) Steve Scherf et al.
# Submitted via: FreeRIP 2.931 
#
DISCID=2d12a915
DTITLE=Лариса Долина - DeLuxe Collection
DYEAR=1900
DGENRE=
TTITLE0=Погода в доме
TTITLE1=До свидания
TTITLE2=Ресторан
TTITLE3=Три розы
TTITLE4=Ты снишься мне
TTITLE5=Счастливая доля
TTITLE6=Гости
TTITLE7=Обижаюсь
TTITLE8=Хочу быть любимой
TTITLE9=Белый корабль
TTITLE10=Ты полюбил другую женщину
TTITLE11=Весна
TTITLE12=Певица и музыкант
TTITLE13=Переполох
TTITLE14=Не надо, не надо
TTITLE15=У костра сентября
TTITLE16=Ревнуй меня
TTITLE17=Романс
TTITLE18=Окольцованная птица
TTITLE19=Прощай
TTITLE20=Не возвращайся
EXTD=
EXTT0=
EXTT1=
EXTT2=
EXTT3=
EXTT4=
EXTT5=
EXTT6=
EXTT7=
EXTT8=
EXTT9=
EXTT10=
EXTT11=
EXTT12=
EXTT13=
EXTT14=
EXTT15=
EXTT16=
EXTT17=
EXTT18=
EXTT19=
EXTT20=
PLAYORDER=
